# xmcd CD database file
#
# Track frame offsets:
#	183
#	13835
#	31913
#	35758
#	49360
#	58378
#	67530
#	80328
#	91400
#	103003
#	124135
#	138583
#	147570
#	150723
#	157805
#	170048
#	175568
#	194643
#	206878
#	214878
#	223960
#	231910
#	234843
#	247590
#	253798
#	258993
#	265808
#	271893
#	274278
#	285208
#	288385
#
# Disc length: 3957 seconds
#
# Revision: 0
# Processed by: cddbd v1.5.2PL0 Copyright (c) Steve Scherf et al.
# Submitted via: CDex 1.70beta2
#
DISCID=d50f731f
DTITLE=34. Landesposaunentag Ulm 1992 - Ulmer Sonderdruck 16
DYEAR=1992
DGENRE=Brass Ensemble
TTITLE0=Heinrich Hartmann: Canzona für 2 Bläserchöre
TTITLE1=Rolf Schweizer: Christus-Fanfare "Jesus Christus herrscht als König"
TTITLE2=J.S.Bach: Choralsatz "Alles ist an Gottes Segen"
TTITLE3=Cesario Gussago: La Porcellaga Sonata für acht Instrumente
TTITLE4=Friedrich Zipp: Aus Choralkantate "Lobe den herren, den mächtigen König"
TTITLE5=Joseph Mouret: Allegro aus Symphonies de Fanfares
TTITLE6=Clement Cotteril Scholefield: "Der Tag, mein Gott ist nun vergangen"
TTITLE7=Pierre Phalese ( Bearb. Erhard Fries) - Galliarde F-Dur
TTITLE8=Jaques Berthier: "Jubilate Deo" Kanon aus Taizè
TTITLE9=Hans Peter Braun: "Mit Freuden zart zu dieser Fahrt"
TTITLE10=Orgelintonation , Gemeindegesang: "In dir ist Freude"
TTITLE11=Choral der Jungbläser: "Großer Gott, wir loben dich"
TTITLE12=J.S.Bach: "Nun laßt uns Gott dem Herren"
TTITLE13=Jörg Sander: Jahreslosung 1992
TTITLE14=Bernard Fitzgerald ( Bearb. Erhard Fries ): Choralmeditation
TTITLE15=Erhard Fries: "In der Welt habt ihr Angst" Sinnspruch
TTITLE16=Helmut Lammel: "Du bist unsre Zuversicht"
TTITLE17=Paul Peuerl ( Bearb. Erhard Fries ) - Padouan
TTITLE18=Pierre Phalese ( Bearb. Erhard Fries ) - Pavane F-Dur
TTITLE19=F.Mendelsohn-Bartholdy: "Ehre sei dem Vater" op. 69.1
TTITLE20=Jan Campanus ( Bearb. Otmar Faulstich) - "Halleluja"
TTITLE21=Ivo Gönner  Oberbürgermeister Ulm: Grußwort
TTITLE22=Paul Peuerl ( Bearb. Erhard Fries ) - Intrada - Tanz - Galliarda
TTITLE23=Karl-Heinz Sartetzki: "Fürchte dich nicht"
TTITLE24=D. Theo Sorg Landesbischof - Grußwort
TTITLE25=J.S.Bach: "Ich liebe Jesus alle Stund"
TTITLE26=Max Reger: "Laß mich dein sein und bleiben"
TTITLE27=Manfred Bletgen, Stuttgart: Sendungswort
TTITLE28=J.S.Bach: "Nun danket alle Gott"
TTITLE29=Läuten der Münsterglocken
TTITLE30=J.S.Bach: "Gloria sei dir gesungen" BWV 140
EXTD=YEAR: 1992
EXTT0=
EXTT1=
EXTT2=
EXTT3=
EXTT4=
EXTT5=
EXTT6=
EXTT7=
EXTT8=
EXTT9=
EXTT10=
EXTT11=
EXTT12=
EXTT13=
EXTT14=
EXTT15=
EXTT16=
EXTT17=
EXTT18=
EXTT19=
EXTT20=
EXTT21=
EXTT22=
EXTT23=
EXTT24=
EXTT25=
EXTT26=
EXTT27=
EXTT28=
EXTT29=
EXTT30=
PLAYORDER=
